<?xml version="1.0" encoding="UTF-8" standalone="no"?>
<svg viewBox="0 0 50 50"
 xmlns="http://www.w3.org/2000/svg" xmlns:xlink="http://www.w3.org/1999/xlink"  version="1.2" baseProfile="tiny">
<title>Qt SVG Document</title>
<desc>Generated with Qt</desc>
<defs>
</defs>
<g fill="none" stroke="black" stroke-width="1" fill-rule="evenodd" stroke-linecap="square" stroke-linejoin="bevel" >

<g fill="#000000" fill-opacity="1" stroke="none" transform="matrix(2.27273,0,0,2.27273,-100,-50)"
font-family="Noto Sans" font-size="14" font-weight="400" font-style="normal" 
opacity="0" >
<rect x="44" y="22" width="22" height="22"/>
</g>

<g fill="#31363b" fill-opacity="1" stroke="none" transform="matrix(2.27273,0,0,2.27273,-100,-50)"
font-family="Noto Sans" font-size="14" font-weight="400" font-style="normal" 
>
<path vector-effect="none" fill-rule="nonzero" d="M48,24 C46.8761,24 45.9707,24.892 45.9707,26 L45.9707,33 L47.9707,33 L47.9707,27 C47.9707,26.446 48.4167,26 48.9707,26 L60.9707,26 C61.5247,26 61.9707,26.446 61.9707,27 L61.9707,39 C61.9707,39.554 61.5247,40 60.9707,40 L54.9707,40 L54.9707,42 L61.9414,42 C63.0653,42 63.9707,41.108 63.9707,40 L63.9707,26 C63.9707,24.892 63.0653,24 61.9414,24 L48,24"/>
</g>

<g fill="none" stroke="#000000" stroke-opacity="1" stroke-width="1" stroke-linecap="square" stroke-linejoin="bevel" transform="matrix(1,0,0,1,0,0)"
font-family="Noto Sans" font-size="14" font-weight="400" font-style="normal" 
>
</g>
</g>
</svg>
