<?xml version="1.0" encoding="UTF-8" standalone="no"?>
<svg viewBox="0 0 50 50"
 xmlns="http://www.w3.org/2000/svg" xmlns:xlink="http://www.w3.org/1999/xlink"  version="1.2" baseProfile="tiny">
<title>Qt SVG Document</title>
<desc>Generated with Qt</desc>
<defs>
</defs>
<g fill="none" stroke="black" stroke-width="1" fill-rule="evenodd" stroke-linecap="square" stroke-linejoin="bevel" >

<g fill="#000000" fill-opacity="1" stroke="none" transform="matrix(2.27273,0,0,2.27273,50,-50)"
font-family="Noto Sans" font-size="14" font-weight="400" font-style="normal" 
opacity="0" >
<rect x="-22" y="22" width="22" height="22"/>
</g>

<g fill="#3daee9" fill-opacity="1" stroke="none" transform="matrix(2.27273,0,0,2.27273,50,-50)"
font-family="Noto Sans" font-size="14" font-weight="400" font-style="normal" 
>
<path vector-effect="none" fill-rule="nonzero" d="M-18,24 C-19.1239,24 -20.0293,24.892 -20.0293,26 L-20.0293,33 L-18.0293,33 L-18.0293,27 C-18.0293,26.446 -17.5833,26 -17.0293,26 L-5.0293,26 C-4.4753,26 -4.0293,26.446 -4.0293,27 L-4.0293,39 C-4.0293,39.554 -4.4753,40 -5.0293,40 L-11.0293,40 L-11.0293,42 L-4.05859,42 C-2.9347,42 -2.0293,41.108 -2.0293,40 L-2.0293,26 C-2.0293,24.892 -2.9347,24 -4.05859,24 L-18,24"/>
</g>

<g fill="none" stroke="#000000" stroke-opacity="1" stroke-width="1" stroke-linecap="square" stroke-linejoin="bevel" transform="matrix(1,0,0,1,0,0)"
font-family="Noto Sans" font-size="14" font-weight="400" font-style="normal" 
>
</g>
</g>
</svg>
