<?xml version="1.0" encoding="UTF-8" standalone="no"?>
<svg viewBox="0 0 50 50"
 xmlns="http://www.w3.org/2000/svg" xmlns:xlink="http://www.w3.org/1999/xlink"  version="1.2" baseProfile="tiny">
<title>Qt SVG Document</title>
<desc>Generated with Qt</desc>
<defs>
</defs>
<g fill="none" stroke="black" stroke-width="1" fill-rule="evenodd" stroke-linecap="square" stroke-linejoin="bevel" >

<g fill="#000000" fill-opacity="1" stroke="none" transform="matrix(-2.27273,0,0,-2.27273,-100,-50)"
font-family="Noto Sans" font-size="14" font-weight="400" font-style="normal" 
opacity="0" >
<rect x="-66" y="-44" width="22" height="22"/>
</g>

<g fill="#31363b" fill-opacity="1" stroke="none" transform="matrix(2.27273,0,0,2.27273,-100,-50)"
font-family="Noto Sans" font-size="14" font-weight="400" font-style="normal" 
>
<path vector-effect="none" fill-rule="nonzero" d="M62,42 C63.1239,42 64.0293,41.108 64.0293,40 L64.0293,33 L62.0293,33 L62.0293,39 C62.0293,39.554 61.5833,40 61.0293,40 L49.0293,40 C48.4753,40 48.0293,39.554 48.0293,39 L48.0293,27 C48.0293,26.446 48.4753,26 49.0293,26 L55.0293,26 L55.0293,24 L48.0586,24 C46.9347,24 46.0293,24.892 46.0293,26 L46.0293,40 C46.0293,41.108 46.9347,42 48.0586,42 L62,42"/>
</g>

<g fill="none" stroke="#000000" stroke-opacity="1" stroke-width="1" stroke-linecap="square" stroke-linejoin="bevel" transform="matrix(1,0,0,1,0,0)"
font-family="Noto Sans" font-size="14" font-weight="400" font-style="normal" 
>
</g>
</g>
</svg>
