<?xml version="1.0" encoding="UTF-8" standalone="no"?>
<svg viewBox="0 0 50 50"
 xmlns="http://www.w3.org/2000/svg" xmlns:xlink="http://www.w3.org/1999/xlink"  version="1.2" baseProfile="tiny">
<title>Qt SVG Document</title>
<desc>Generated with Qt</desc>
<defs>
</defs>
<g fill="none" stroke="black" stroke-width="1" fill-rule="evenodd" stroke-linecap="square" stroke-linejoin="bevel" >

<g fill="#000000" fill-opacity="1" stroke="none" transform="matrix(2.27273,0,0,2.27273,0,0)"
font-family="Noto Sans" font-size="14" font-weight="400" font-style="normal" 
opacity="0" >
<rect x="0" y="0" width="22" height="22"/>
</g>

<g fill="#3daee9" fill-opacity="1" stroke="none" transform="matrix(2.27273,0,0,2.27273,0,0)"
font-family="Noto Sans" font-size="14" font-weight="400" font-style="normal" 
>
<path vector-effect="none" fill-rule="nonzero" d="M4,2 C2.87611,2 1.9707,2.892 1.9707,4 L1.9707,11 L3.9707,11 L3.9707,5 C3.9707,4.446 4.4167,4 4.9707,4 L16.9707,4 C17.5247,4 17.9707,4.446 17.9707,5 L17.9707,17 C17.9707,17.554 17.5247,18 16.9707,18 L10.9707,18 L10.9707,20 L17.9414,20 C19.0653,20 19.9707,19.108 19.9707,18 L19.9707,4 C19.9707,2.892 19.0653,2 17.9414,2 L4,2 M7.99805,7 L7.99805,8.99805 L11.5898,8.99805 L1.75195,18.8262 L3.17383,20.248 L13.002,10.4141 L13.002,14.002 L15,14.002 L15,7 L7.99805,7"/>
</g>

<g fill="none" stroke="#000000" stroke-opacity="1" stroke-width="1" stroke-linecap="square" stroke-linejoin="bevel" transform="matrix(1,0,0,1,0,0)"
font-family="Noto Sans" font-size="14" font-weight="400" font-style="normal" 
>
</g>
</g>
</svg>
