<?xml version="1.0" encoding="UTF-8" standalone="no"?>
<svg viewBox="0 0 50 50"
 xmlns="http://www.w3.org/2000/svg" xmlns:xlink="http://www.w3.org/1999/xlink"  version="1.2" baseProfile="tiny">
<title>Qt SVG Document</title>
<desc>Generated with Qt</desc>
<defs>
</defs>
<g fill="none" stroke="black" stroke-width="1" fill-rule="evenodd" stroke-linecap="square" stroke-linejoin="bevel" >

<g fill="#000000" fill-opacity="1" stroke="none" transform="matrix(-2.27273,0,0,-2.27273,0,-50)"
font-family="Noto Sans" font-size="14" font-weight="400" font-style="normal" 
opacity="0" >
<rect x="-22" y="-44" width="22" height="22"/>
</g>

<g fill="#3daee9" fill-opacity="1" stroke="none" transform="matrix(2.27273,0,0,2.27273,0,-50)"
font-family="Noto Sans" font-size="14" font-weight="400" font-style="normal" 
>
<path vector-effect="none" fill-rule="nonzero" d="M18,42 C19.1239,42 20.0293,41.108 20.0293,40 L20.0293,33 L18.0293,33 L18.0293,39 C18.0293,39.554 17.5833,40 17.0293,40 L5.0293,40 C4.4753,40 4.0293,39.554 4.0293,39 L4.0293,27 C4.0293,26.446 4.4753,26 5.0293,26 L11.0293,26 L11.0293,24 L4.05859,24 C2.9347,24 2.0293,24.892 2.0293,26 L2.0293,40 C2.0293,41.108 2.9347,42 4.05859,42 L18,42 M14.002,37 L14.002,35.002 L10.4102,35.002 L20.248,25.1738 L18.8262,23.752 L8.99805,33.5859 L8.99805,29.998 L7,29.998 L7,37 L14.002,37"/>
</g>

<g fill="none" stroke="#000000" stroke-opacity="1" stroke-width="1" stroke-linecap="square" stroke-linejoin="bevel" transform="matrix(1,0,0,1,0,0)"
font-family="Noto Sans" font-size="14" font-weight="400" font-style="normal" 
>
</g>
</g>
</svg>
