<?xml version="1.0" encoding="UTF-8" standalone="no"?>
<svg viewBox="0 0 50 50"
 xmlns="http://www.w3.org/2000/svg" xmlns:xlink="http://www.w3.org/1999/xlink"  version="1.2" baseProfile="tiny">
<title>Qt SVG Document</title>
<desc>Generated with Qt</desc>
<defs>
</defs>
<g fill="none" stroke="black" stroke-width="1" fill-rule="evenodd" stroke-linecap="square" stroke-linejoin="bevel" >

<g fill="#000000" fill-opacity="1" stroke="none" transform="matrix(-2.27273,0,0,-2.27273,50,-50)"
font-family="Noto Sans" font-size="14" font-weight="400" font-style="normal" 
opacity="0" >
<rect x="0" y="-44" width="22" height="22"/>
</g>

<g fill="#3daee9" fill-opacity="1" stroke="none" transform="matrix(2.27273,0,0,2.27273,50,-50)"
font-family="Noto Sans" font-size="14" font-weight="400" font-style="normal" 
>
<path vector-effect="none" fill-rule="nonzero" d="M-4,42 C-2.87611,42 -1.9707,41.108 -1.9707,40 L-1.9707,33 L-3.9707,33 L-3.9707,39 C-3.9707,39.554 -4.4167,40 -4.9707,40 L-16.9707,40 C-17.5247,40 -17.9707,39.554 -17.9707,39 L-17.9707,27 C-17.9707,26.446 -17.5247,26 -16.9707,26 L-10.9707,26 L-10.9707,24 L-17.9414,24 C-19.0653,24 -19.9707,24.892 -19.9707,26 L-19.9707,40 C-19.9707,41.108 -19.0653,42 -17.9414,42 L-4,42"/>
</g>

<g fill="none" stroke="#000000" stroke-opacity="1" stroke-width="1" stroke-linecap="square" stroke-linejoin="bevel" transform="matrix(1,0,0,1,0,0)"
font-family="Noto Sans" font-size="14" font-weight="400" font-style="normal" 
>
</g>
</g>
</svg>
