<?xml version="1.0" encoding="UTF-8" standalone="no"?>
<svg viewBox="0 0 50 50"
 xmlns="http://www.w3.org/2000/svg" xmlns:xlink="http://www.w3.org/1999/xlink"  version="1.2" baseProfile="tiny">
<title>Qt SVG Document</title>
<desc>Generated with Qt</desc>
<defs>
</defs>
<g fill="none" stroke="black" stroke-width="1" fill-rule="evenodd" stroke-linecap="square" stroke-linejoin="bevel" >

<g fill="#31363b" fill-opacity="1" stroke="none" transform="matrix(2.27273,0,0,2.27273,-100,0)"
font-family="Noto Sans" font-size="14" font-weight="400" font-style="normal" 
>
<path vector-effect="none" fill-rule="nonzero" d="M55,0 C48.9249,-3.71995e-16 44,4.92487 44,11 C44,17.0751 48.9249,22 55,22 C61.0751,22 66,17.0751 66,11 C66,4.92487 61.0751,3.71995e-16 55,0 M55,2 C59.9706,2 64,6.02944 64,11 C64,15.9706 59.9706,20 55,20 C50.0294,20 46,15.9706 46,11 C46,6.02944 50.0294,2 55,2 "/>
</g>

<g fill="none" stroke="#000000" stroke-opacity="1" stroke-width="1" stroke-linecap="square" stroke-linejoin="bevel" transform="matrix(1,0,0,1,0,0)"
font-family="Noto Sans" font-size="14" font-weight="400" font-style="normal" 
>
</g>
</g>
</svg>
