<?xml version="1.0" encoding="UTF-8" standalone="no"?>
<svg viewBox="0 0 50 50"
 xmlns="http://www.w3.org/2000/svg" xmlns:xlink="http://www.w3.org/1999/xlink"  version="1.2" baseProfile="tiny">
<title>Qt SVG Document</title>
<desc>Generated with Qt</desc>
<defs>
</defs>
<g fill="none" stroke="black" stroke-width="1" fill-rule="evenodd" stroke-linecap="square" stroke-linejoin="bevel" >

<g fill="#000000" fill-opacity="1" stroke="none" transform="matrix(2.27273,0,0,2.27273,-50,0)"
font-family="Noto Sans" font-size="14" font-weight="400" font-style="normal" 
opacity="0" >
<path vector-effect="none" fill-rule="nonzero" d="M33,0 C26.9249,-3.71995e-16 22,4.92487 22,11 C22,17.0751 26.9249,22 33,22 C39.0751,22 44,17.0751 44,11 C44,4.92487 39.0751,3.71995e-16 33,0 M33,2 C37.9706,2 42,6.02944 42,11 C42,15.9706 37.9706,20 33,20 C28.0294,20 24,15.9706 24,11 C24,6.02944 28.0294,2 33,2 "/>
</g>

<g fill="#3daee9" fill-opacity="1" stroke="none" transform="matrix(2.27273,0,0,2.27273,-50,0)"
font-family="Noto Sans" font-size="14" font-weight="400" font-style="normal" 
>
<path vector-effect="none" fill-rule="nonzero" d="M27,8.41406 L31.5859,13 L33,14.4141 L34.4141,13 L39,8.41406 L37.5859,7 L33,11.5859 L28.4141,7 L27,8.41406"/>
</g>

<g fill="none" stroke="#000000" stroke-opacity="1" stroke-width="1" stroke-linecap="square" stroke-linejoin="bevel" transform="matrix(1,0,0,1,0,0)"
font-family="Noto Sans" font-size="14" font-weight="400" font-style="normal" 
>
</g>
</g>
</svg>
