<?xml version="1.0" encoding="UTF-8" standalone="no"?>
<svg viewBox="0 0 50 50"
 xmlns="http://www.w3.org/2000/svg" xmlns:xlink="http://www.w3.org/1999/xlink"  version="1.2" baseProfile="tiny">
<title>Qt SVG Document</title>
<desc>Generated with Qt</desc>
<defs>
</defs>
<g fill="none" stroke="black" stroke-width="1" fill-rule="evenodd" stroke-linecap="square" stroke-linejoin="bevel" >

<g fill="#3daee9" fill-opacity="1" stroke="none" transform="matrix(2.27273,0,0,2.27273,0,0)"
font-family="Noto Sans" font-size="14" font-weight="400" font-style="normal" 
>
<path vector-effect="none" fill-rule="nonzero" d="M11,0 C4.92487,-3.71995e-16 7.43989e-16,4.92487 0,11 C7.43989e-16,17.0751 4.92487,22 11,22 C17.0751,22 22,17.0751 22,11 C22,4.92487 17.0751,3.71995e-16 11,0 M11,2 C15.9706,2 20,6.02944 20,11 C20,15.9706 15.9706,20 11,20 C6.02944,20 2,15.9706 2,11 C2,6.02944 6.02944,2 11,2 M6.41406,7 L5,8.41406 L9.58594,13 L11,14.4141 L12.4141,13 L17,8.41406 L15.5859,7 L11,11.5859 L6.41406,7"/>
</g>

<g fill="none" stroke="#000000" stroke-opacity="1" stroke-width="1" stroke-linecap="square" stroke-linejoin="bevel" transform="matrix(1,0,0,1,0,0)"
font-family="Noto Sans" font-size="14" font-weight="400" font-style="normal" 
>
</g>
</g>
</svg>
